<?xml version="1.0" encoding="UTF-8"?>
<svg width="59px" height="41px" viewBox="0 0 59 41" version="1.1" xmlns="http://www.w3.org/2000/svg" xmlns:xlink="http://www.w3.org/1999/xlink">
    <!-- Generator: Sketch 51.3 (57544) - http://www.bohemiancoding.com/sketch -->
    <title>icon-rx-white</title>
    <desc>Created with Sketch.</desc>
    <defs>
        <polygon id="path-1" points="0 0 59 0 59 40.7636364 0 40.7636364"></polygon>
    </defs>
    <g id="wk43-final" stroke="none" stroke-width="1" fill="none" fill-rule="evenodd">
        <g id="1280-wk43" transform="translate(-87.000000, -1920.000000)">
            <rect fill="#FFFFFF" x="0" y="0" width="1280" height="3150"></rect>
            <g id="Module/Fulfillment" transform="translate(-1.000000, 1838.000000)">
                <g id="10-Fulfilment">
                    <rect id="Background" fill="#00334B" x="0" y="0" width="1281" height="164.885417"></rect>
                    <g id="RX" transform="translate(87.573611, 78.945139)">
                        <g id="Group-3" transform="translate(0.426389, 3.054861)">
                            <mask id="mask-2" fill="white">
                                <use xlink:href="#path-1"></use>
                            </mask>
                            <g id="Clip-2"></g>
                            <path d="M20.3923983,16.5081404 C20.3131004,16.5081404 20.2349686,16.5222944 20.1609183,16.5506025 C20.0023224,16.6106157 19.8775448,16.7266788 19.8099083,16.8767116 L18.5428905,19.67355 C18.4746709,19.8235828 18.4711725,19.9917328 18.5329782,20.1462949 C18.594784,20.3008571 18.7154801,20.4225818 18.8723268,20.4893889 L26.1391667,23.593653 L29.3355734,16.5370146 C29.404376,16.3852833 29.4078745,16.2171333 29.3454856,16.0637035 C29.2836799,15.9091414 29.1635668,15.7874167 29.0067202,15.7200434 L26.1315867,14.4920389 C25.9718247,14.4235333 25.7998182,14.4207025 25.6435546,14.4801495 C25.4843756,14.5401626 25.3590149,14.6573581 25.2896292,14.811354 L23.8739277,17.9382646 L20.6506997,16.5619258 C20.5673202,16.5262576 20.4810254,16.5081404 20.3923983,16.5081404 Z M27.0965727,25.9817227 L18.1207455,22.1488086 C17.5091019,21.8878081 17.0373957,21.4099677 16.7942543,20.8047409 C16.5505297,20.198948 16.5651065,19.5382374 16.8339032,18.9437677 L18.0997549,16.1497601 C18.3668024,15.5558566 18.8589161,15.0978318 19.4839704,14.8611763 C19.7749239,14.7513409 20.0804542,14.6958571 20.3923983,14.6958571 C20.7422422,14.6958571 21.0821738,14.7654949 21.403447,14.9030722 L22.9165217,15.5496288 L23.580642,14.082704 C23.8494387,13.4859697 24.3421354,13.0273788 24.9666067,12.7912894 C25.2569771,12.6808879 25.5619243,12.6259702 25.8727023,12.6259702 C26.2231292,12.6259702 26.5630608,12.6961742 26.8855003,12.8343177 L29.7583014,14.0611899 C30.3705281,14.3227566 30.8416512,14.7994646 31.0842096,15.4052576 C31.3279341,16.0104843 31.3133573,16.6717611 31.0445606,17.266797 L27.0965727,25.9817227 Z M7.04468909,37.0711303 L6.38873187,35.3743439 L9.99678816,34.0580182 L10.6533285,35.7548045 L7.04468909,37.0711303 Z M3.53109064,32.8362414 L2.87571649,31.1388889 L8.10238368,29.2354535 L8.75775784,30.9328061 L3.53109064,32.8362414 Z M0.651292643,28.3584692 L0,26.6599843 L6.20681306,24.4185505 L6.85752263,26.1176015 L0.651292643,28.3584692 Z M52.3185654,27.4763894 C52.0101198,27.5913202 51.6888465,27.650201 51.3623256,27.650201 C50.5740108,27.650201 49.834091,27.3031439 49.3361466,26.7375485 C49.1437325,26.5201424 48.9874689,26.2693328 48.8784342,25.9941783 C48.7542396,25.6822232 48.6953493,25.3578126 48.6994308,25.0339682 C48.7029292,24.6874773 48.7793118,24.3426848 48.9285785,24.0165758 C49.2177827,23.3858717 49.7413824,22.9018035 50.4043365,22.6532586 C50.7127821,22.5377616 51.0340554,22.4800131 51.3611594,22.4800131 C52.1104083,22.4800131 52.8153437,22.7931005 53.3109558,23.3088737 C53.5383544,23.5449631 53.7220224,23.824647 53.8450508,24.1360359 C53.9564178,24.4157197 54.0135589,24.7021975 54.0211389,24.9852783 C54.054374,26.0513606 53.4007491,27.0715838 52.3185654,27.4763894 Z M45.4266415,26.2585758 L41.3806973,16.0614389 L40.5492351,13.9655086 L43.4873404,12.8660227 L45.933332,19.0315227 L54.1569949,15.9555667 L54.1569949,15.9561328 L56.5872435,22.0831338 L55.1318931,22.6283475 C54.8071214,22.1533379 54.389058,21.744003 53.894612,21.4207247 C53.1418646,20.9281641 52.2666719,20.6677298 51.3611594,20.6677298 C50.8043246,20.6677298 50.2562359,20.7662419 49.7338024,20.9621338 C48.6049729,21.3844904 47.7134542,22.2076894 47.2225066,23.281698 C46.8685813,24.0567732 46.7542989,24.8946924 46.8819919,25.7139283 L45.4266415,26.2585758 Z M35.2852512,30.0512924 C34.9610626,29.576849 34.5429992,29.1675141 34.0497193,28.8442359 C33.296972,28.3516753 32.42003,28.0912409 31.5162668,28.0912409 C30.9594319,28.0912409 30.4113432,28.1903192 29.8883267,28.3856449 C28.7600802,28.8085677 27.8679784,29.6317667 27.3776139,30.7052091 C27.0231055,31.4802843 26.9088232,32.3187697 27.0365162,33.1374394 L24.9205439,33.9289333 C24.5963553,33.4544899 24.178875,33.0451551 23.684429,32.7218768 C22.9310985,32.2293162 22.0559058,31.9688818 21.1503933,31.9688818 C20.5935585,31.9688818 20.046636,32.0673939 19.5230363,32.2632859 C18.3947899,32.6850763 17.5032711,33.5094076 17.0123236,34.58285 C16.6583982,35.3579253 16.5435328,36.1958444 16.6712258,37.0150803 L15.1359944,37.5891682 L5.38934459,13.0222833 L33.9371862,2.34277677 L38.1358956,12.9254697 L43.6844191,26.9096616 L35.2852512,30.0512924 Z M32.4725066,34.8999005 C32.3191584,34.957649 32.1617287,35.0012434 32.0025497,35.0301177 C31.8416215,35.0595581 31.6801103,35.0737121 31.5174329,35.0737121 C30.7279519,35.0737121 29.9886153,34.7272212 29.4906708,34.1621919 C29.2982567,33.9436535 29.1419931,33.6934101 29.0323754,33.4176894 C28.9087639,33.1063005 28.8498735,32.7818899 28.853955,32.4580455 C28.8580365,32.1121207 28.9344191,31.766196 29.0836858,31.440653 C29.3717239,30.809949 29.8964897,30.3253146 30.5594438,30.0773359 C30.8678895,29.9624051 31.1891627,29.9035242 31.5162668,29.9035242 C32.2655157,29.9035242 32.9692849,30.2166116 33.4654801,30.7323848 C33.6922955,30.9690404 33.8759636,31.2481581 33.999575,31.559547 C34.1103589,31.8392308 34.1675001,32.1257086 34.1762462,32.4087894 C34.2094814,33.4754379 33.5546903,34.4956611 32.4725066,34.8999005 Z M23.5841404,37.4142242 C23.2955192,38.0454944 22.7713365,38.5295626 22.1077993,38.7775414 C21.7999368,38.8924722 21.4780804,38.951353 21.1521425,38.951353 C20.3632447,38.951353 19.6233249,38.604296 19.1253805,38.0387005 C18.9335494,37.8212944 18.7772858,37.5704848 18.6676681,37.2953303 C18.5446397,36.9839414 18.4845832,36.6589646 18.4886647,36.3351202 C18.4927462,35.9886293 18.5702949,35.6438369 18.7183955,35.3182939 C19.0070166,34.6870237 19.5311994,34.2029556 20.1947365,33.9549768 C20.502016,33.8394798 20.8238724,33.7811652 21.1503933,33.7811652 C21.8996423,33.7811652 22.6039945,34.0942525 23.1001897,34.6100258 C23.3275883,34.8466813 23.5106732,35.125799 23.6342847,35.4371879 C23.7439024,35.7129086 23.8033759,35.9993864 23.8127051,36.2858641 C23.8249496,36.6691556 23.748567,37.0535793 23.5841404,37.4142242 Z M52.514478,14.6279177 L47.0050204,16.688746 L45.2295628,12.2143707 L46.9572084,11.567248 L52.514478,14.6279177 Z M59,23.1231727 L55.4426711,14.1563051 L47.1099735,9.56813131 L39.878118,12.2738177 L35.0077084,0 L2.97600506,11.9828106 L14.0654722,39.9319449 L17.3213523,38.7141313 C17.653704,39.2265076 18.092758,39.6664152 18.6181069,40.0106414 C19.3708543,40.503202 20.24663,40.7636364 21.1521425,40.7636364 C21.7083943,40.7636364 22.2558999,40.6645581 22.7789165,40.4686662 C23.907746,40.0468758 24.7992647,39.2225444 25.2896292,38.1496682 C25.6592975,37.3411894 25.7677491,36.4642051 25.6132348,35.6121318 L27.6866427,34.8364904 C28.0189943,35.3488667 28.4580484,35.7893404 28.9828142,36.1330005 C29.7355615,36.6255611 30.6119204,36.8859955 31.5174329,36.8859955 C32.0731016,36.8859955 32.6206072,36.7869172 33.1436237,36.5915914 C35.1931257,35.8250086 36.3411966,33.7607833 35.977942,31.7350571 L44.3549532,28.6007864 L46.0971756,27.9497005 L47.5321184,27.4129793 C47.8650532,27.9253556 48.3035241,28.3652631 48.8282899,28.7094894 C49.5810373,29.20205 50.4568131,29.4624843 51.3623256,29.4624843 C51.9191604,29.4624843 52.466666,29.3634061 52.9896826,29.1675141 C55.0380183,28.4014975 56.1860893,26.3367061 55.8228347,24.311546 L59,23.1231727 Z" id="Fill-1" fill="#FFFFFF" mask="url(#mask-2)"></path>
                        </g>
                    </g>
                    <g id="icon-rx-white" transform="translate(88.000000, 82.000000)"></g>
                </g>
            </g>
        </g>
    </g>
</svg>