<?xml version="1.0" encoding="UTF-8"?>
<svg width="59px" height="44px" viewBox="0 0 59 44" version="1.1" xmlns="http://www.w3.org/2000/svg" xmlns:xlink="http://www.w3.org/1999/xlink">
    <!-- Generator: Sketch 51.3 (57544) - http://www.bohemiancoding.com/sketch -->
    <title>icon-shipping-white</title>
    <desc>Created with Sketch.</desc>
    <defs>
        <polygon id="path-1" points="0 5.5e-05 58.8644255 5.5e-05 58.8644255 44 0 44"></polygon>
    </defs>
    <g id="wk43-final" stroke="none" stroke-width="1" fill="none" fill-rule="evenodd">
        <g id="1280-wk43" transform="translate(-484.000000, -1917.000000)">
            <rect fill="#FFFFFF" x="0" y="0" width="1280" height="3150"></rect>
            <g id="Module/Fulfillment" transform="translate(-1.000000, 1838.000000)">
                <g id="10-Fulfilment">
                    <rect id="Background" fill="#00334B" x="0" y="0" width="1281" height="164.885417"></rect>
                    <g id="1-2day" transform="translate(484.573611, 78.945139)">
                        <g id="shipping-white">
                            <g id="Group-2">
                                <g id="Group-10" transform="translate(0.426389, 0.054861)">
                                    <polygon id="Fill-1" fill="#FFFFFF" points="16.8571429 39.767175 9.17736543 42.952381 8.42857143 40.9010509 16.108495 37.7142857"></polygon>
                                    <polygon id="Fill-2" fill="#FFFFFF" points="4.21428571 35.9898934 14.0255472 32.4761905 14.75 34.1994048 4.94001566 37.7142857"></polygon>
                                    <polygon id="Fill-3" fill="#FFFFFF" points="0.705936528 33.5238095 0 31.634062 10.8821068 27.2380952 11.5892857 29.1264075"></polygon>
                                    <g id="Group-9">
                                        <g id="Group-6">
                                            <mask id="mask-2" fill="white">
                                                <use xlink:href="#path-1"></use>
                                            </mask>
                                            <g id="Clip-5"></g>
                                            <path d="M24.1008165,41.494255 L16.9728355,23.0319925 L41.2009135,13.9399425 L42.0986061,13.602655 L44.3101995,12.772705 L51.4392965,31.23373 L24.1008165,41.494255 Z M30.6487007,10.2499925 L32.5341901,15.1122675 L20.3114265,19.7003675 L18.4352823,14.835205 L30.6487007,10.2499925 Z M31.4396913,6.850305 L36.6305754,4.905505 L39.555469,12.4785925 L34.3772775,14.4222925 L31.7955045,7.741855 L31.7876936,7.7458425 L31.4396913,6.850305 Z M31.4548946,2.8940175 L33.9740411,1.95008 C33.9798993,1.947605 33.9860364,1.94623 33.9918946,1.9449925 L34.6244359,3.578905 L32.1987409,4.4884675 L32.0681877,4.5382425 L31.4370411,2.90433 C31.4428993,2.9003425 31.4488969,2.8978675 31.4548946,2.8940175 Z M58.8645092,18.43358 L45.434547,10.2565925 L41.3977196,11.7872425 L38.3924856,4.0074925 C38.1354241,3.3433675 37.4804265,2.8978675 36.7604312,2.8978675 C36.6643296,2.8978675 36.5694832,2.9055675 36.4785423,2.9198675 L35.8065281,1.1815925 C35.5279868,0.4641175 34.8247291,5.5e-05 34.0146298,5.5e-05 C33.7613343,5.5e-05 33.5106889,0.0458425 33.2734336,0.1346675 L30.7527527,1.0795675 C29.7286913,1.465255 29.1975518,2.56058 29.567313,3.52253 L30.2377929,5.2570925 C29.536209,5.680455 29.2161026,6.5523425 29.519053,7.3380175 L29.9453035,8.43843 L15.8915872,13.7111425 L18.4723839,20.3917175 L15.6714879,21.4424925 L0.596778723,16.73188 L-5.57919622e-05,18.584005 L14.9494005,23.254055 L22.9632184,44.000055 L53.9811783,32.3577925 L46.5806534,13.22618 L57.8369608,20.08963 L58.8645092,18.43358 Z" id="Fill-4" fill="#FFFFFF" mask="url(#mask-2)"></path>
                                        </g>
                                        <path d="M39.2252504,23.7167975 L35.8509525,31.2757225 L28.1799761,27.95056 C28.0167846,27.879885 27.8894395,27.74926 27.8245813,27.581785 C27.757631,27.4185725 27.7620943,27.238035 27.8325317,27.07606 L29.1688887,24.0800725 C29.2439288,23.9194725 29.3725293,23.7951725 29.5422764,23.731235 C29.6198272,23.6997475 29.7039336,23.6854475 29.7855293,23.6854475 C29.8789809,23.6854475 29.9718745,23.703735 30.0594678,23.74306 L33.4616617,25.2185725 L34.9552125,21.86591 C35.0263473,21.7026975 35.1601085,21.57716 35.3279028,21.5118475 C35.4922102,21.4491475 35.6746499,21.45176 35.8416073,21.5250475 L38.877248,22.84106 C39.0430896,22.9115975 39.168761,23.043735 39.2359903,23.2096975 C39.3008485,23.374285 39.2962456,23.553585 39.2252504,23.7167975 M39.6707492,21.06346 L36.6398508,19.748685 C36.298404,19.6008725 35.9384064,19.5249725 35.569761,19.5249725 C35.2422622,19.5249725 34.9195057,19.5838225 34.6137657,19.7015225 C33.9548626,19.9564475 33.4337657,20.4464975 33.1493662,21.0855975 L32.4487586,22.65681 L30.8542243,21.96546 C30.5127775,21.81751 30.1555695,21.74326 29.7855293,21.74326 C29.4566357,21.74326 29.1338792,21.8019725 28.826326,21.92091 C28.1679809,22.173085 27.649534,22.664785 27.3663898,23.301135 L26.0300329,26.2943725 C25.7475861,26.93086 25.73043,27.6393975 25.9874915,28.28881 C26.2452504,28.938635 26.7426357,29.4497225 27.3903804,29.7293975 L36.8598106,33.83611 L41.0264939,24.498485 C41.310196,23.860485 41.3281889,23.1522225 41.0697326,22.502535 C40.8136475,21.8555975 40.3164017,21.3432725 39.6707492,21.06346" id="Fill-7" fill="#FFFFFF"></path>
                                    </g>
                                </g>
                            </g>
                        </g>
                    </g>
                </g>
            </g>
        </g>
    </g>
</svg>